<svg width="9630" height="12535" viewBox="0 0 9630 12535" fill="none" xmlns="http://www.w3.org/2000/svg">
<circle cx="4813.5" cy="1897.5" r="1823.5" fill="white" stroke="black" stroke-width="148"/>
<path d="M2812 1645.93C4215.65 836.847 5484.21 828.545 6818.24 1645.93C6818.24 6031.79 6818.24 4932.1 6818.24 8184.44C5807.56 8896.51 3723.89 8751.87 2812 8184.44C2812 5467.48 2812 5467.48 2812 1645.93Z" fill="white" stroke="black" stroke-width="148"/>
<line x1="4740" y1="5897" x2="4740" y2="1036" stroke="black" stroke-width="148"/>
<path d="M4446 5881H3122V2804.28C3122 2804.28 3446.13 1897 3784 1897C4121.87 1897 4446 2804.28 4446 2804.28V5881Z" fill="white" stroke="black" stroke-width="148"/>
<path d="M4398.5 3953C4398.5 3953 4049.5 3994.5 3677 4082C4398.5 3158 4086 2156 4086 2156L4398.5 2804V3953Z" fill="#636363" stroke="black" stroke-width="26"/>
<path d="M6506 5881H5182V2804.28C5182 2804.28 5506.13 1897 5844 1897C6181.87 1897 6506 2804.28 6506 2804.28V5881Z" fill="white" stroke="black" stroke-width="148"/>
<path d="M5253 3953C5253 3953 5602 3994.5 5974.5 4082C5253 3158 5565.5 2156 5565.5 2156L5253 2804V3953Z" fill="#636363" stroke="black" stroke-width="26"/>
<path d="M2564 4574C4141 3665 5566.21 3655.67 7065 4574C7065 9501.5 7065 8266 7065 11920C5929.5 12720 3588.5 12557.5 2564 11920C2564 8867.5 2564 8867.5 2564 4574Z" fill="white" stroke="black" stroke-width="148"/>
<path d="M2007.01 7684C2543.5 7684 2565 7684 2565 7684V11920H2007.01C2007.01 11920 1182 11920 167.502 11920C1324 10641 1716.67 8458.5 2007.01 7684Z" fill="white"/>
<path d="M2007.01 7684C2543.5 7684 2565 7684 2565 7684V11920H2007.01C2007.01 11920 1182 11920 167.502 11920C1324 10641 1716.67 8458.5 2007.01 7684Z" fill="white"/>
<path d="M2007.01 7684C2543.5 7684 2565 7684 2565 7684V11920H2007.01C2007.01 11920 1182 11920 167.502 11920C1324 10641 1716.67 8458.5 2007.01 7684Z" stroke="black" stroke-width="148"/>
<path d="M7623 7684C7086.5 7684 7065 7684 7065 7684V11920H7623C7623 11920 8448 11920 9462.5 11920C8306 10641 7913.33 8458.5 7623 7684Z" fill="white" stroke="black" stroke-width="148"/>
</svg>
